<?xml version="1.0" standalone="no"?>
<!DOCTYPE svg PUBLIC "-//W3C//DTD SVG 20010904//EN"
 "http://www.w3.org/TR/2001/REC-SVG-20010904/DTD/svg10.dtd">
<svg version="1.0" xmlns="http://www.w3.org/2000/svg"
 width="128.000000pt" height="128.000000pt" viewBox="0 0 128.000000 128.000000"
 preserveAspectRatio="xMidYMid meet">

<g transform="translate(0.000000,128.000000) scale(0.100000,-0.100000)"
fill="#000000" stroke="none">
<path d="M325 1196 c-22 -33 -18 -221 5 -221 12 0 16 20 20 100 l5 100 440 0
440 0 3 -282 2 -283 -114 0 c-80 0 -117 -4 -124 -13 -6 -7 -12 -33 -14 -57
l-3 -45 -81 -3 -81 -3 0 31 c0 17 -10 44 -22 61 l-23 31 37 118 c22 68 35 126
31 136 -12 32 -32 -4 -71 -127 -33 -108 -38 -117 -64 -122 -16 -3 -53 -29 -84
-56 l-55 -51 -195 0 c-114 0 -208 -4 -224 -11 -39 -14 -91 -67 -102 -103 -6
-17 -20 -88 -32 -159 -19 -118 -20 -129 -5 -152 l16 -25 213 0 c168 0 217 3
233 14 16 13 19 29 22 130 l4 116 64 0 c78 0 121 19 184 84 l44 46 214 0 c209
0 245 5 264 34 4 6 8 164 8 351 0 292 -2 344 -16 363 l-15 22 -454 0 -455 0
-15 -24z m433 -632 c39 -27 29 -63 -35 -126 -74 -71 -88 -78 -163 -78 -98 0
-100 -3 -100 -125 0 -57 -3 -110 -6 -119 -4 -12 -20 -16 -55 -16 l-49 0 0 48
c0 26 -5 53 -12 60 -7 7 -39 12 -71 12 l-60 0 7 39 c4 26 2 42 -5 47 -21 12
-36 -23 -49 -116 l-13 -90 -48 0 c-26 0 -50 4 -54 10 -3 5 4 64 15 132 38 224
44 228 327 228 l203 0 60 55 c65 60 74 63 108 39z m480 -31 l-3 -38 -102 -3
-103 -3 0 41 0 40 106 0 105 0 -3 -37z m-928 -393 l0 -40 -60 0 c-57 0 -60 1
-60 24 0 49 9 56 66 56 l54 0 0 -40z"/>
<path d="M461 1081 c-12 -8 -12 -12 -2 -25 11 -13 38 -16 146 -16 74 0 140 3
149 6 21 8 21 30 0 38 -25 10 -277 7 -293 -3z"/>
<path d="M455 969 c-4 -6 -3 -15 2 -20 5 -5 152 -8 354 -7 298 3 344 5 344 18
0 13 -46 15 -347 18 -244 1 -349 -1 -353 -9z"/>
<path d="M278 940 c-87 -26 -138 -93 -138 -179 0 -29 7 -65 14 -80 20 -38 80
-89 114 -97 15 -3 32 -7 38 -9 23 -7 100 17 131 41 102 78 88 250 -26 308 -36
19 -100 26 -133 16z m82 -40 c29 0 87 -56 100 -96 40 -121 -94 -229 -210 -169
-79 41 -94 178 -26 234 22 19 88 41 104 36 8 -3 22 -5 32 -5z"/>
<path d="M581 867 c-18 -22 -3 -27 79 -27 82 0 97 5 79 27 -8 8 -35 13 -79 13
-44 0 -71 -5 -79 -13z"/>
<path d="M957 873 c-4 -3 -7 -12 -7 -20 0 -10 23 -13 98 -13 103 0 119 4 101
27 -12 14 -179 20 -192 6z"/>
<path d="M902 713 c3 -16 18 -18 112 -21 104 -3 144 6 130 29 -3 5 -59 9 -125
9 -109 0 -120 -2 -117 -17z"/>
<path d="M797 383 c-4 -3 -7 -78 -7 -165 0 -147 1 -159 18 -156 15 3 17 20 20
154 2 118 0 154 -11 162 -8 7 -17 9 -20 5z"/>
</g>
</svg>
