<?xml version="1.0" standalone="no"?>
<!DOCTYPE svg PUBLIC "-//W3C//DTD SVG 20010904//EN"
 "http://www.w3.org/TR/2001/REC-SVG-20010904/DTD/svg10.dtd">
<svg version="1.0" xmlns="http://www.w3.org/2000/svg"
 width="128.000000pt" height="128.000000pt" viewBox="0 0 128.000000 128.000000"
 preserveAspectRatio="xMidYMid meet">

<g transform="translate(0.000000,128.000000) scale(0.100000,-0.100000)"
fill="#000000" stroke="none">
<path d="M963 1231 c-10 -11 -31 -45 -48 -76 -26 -49 -28 -57 -14 -70 23 -23
40 -11 82 60 43 73 44 81 17 95 -15 8 -23 6 -37 -9z"/>
<path d="M568 1169 c-9 -5 -45 -63 -79 -129 -84 -162 -137 -219 -284 -305
-121 -70 -165 -112 -184 -174 -45 -152 58 -295 214 -295 33 0 66 2 74 4 9 3
35 -30 75 -97 34 -57 70 -109 81 -116 54 -37 122 -25 164 29 35 45 25 100 -37
206 -29 48 -52 91 -52 96 0 32 141 53 309 45 l136 -6 28 28 c41 42 37 84 -19
180 -35 62 -43 83 -35 95 58 80 67 138 31 198 -32 53 -75 74 -143 69 l-59 -3
-45 78 c-25 43 -54 85 -66 93 -24 17 -83 19 -109 4z m80 -61 c38 -48 332 -576
330 -593 -3 -19 -10 -20 -183 -20 -159 -1 -187 -3 -237 -22 l-58 -22 -54 92
c-29 51 -66 115 -82 142 l-28 51 53 49 c56 52 123 154 167 250 33 74 42 85 64
85 10 0 22 -6 28 -12z m273 -197 c34 -34 38 -77 11 -111 l-19 -23 -41 72 c-23
40 -42 77 -42 82 0 22 63 8 91 -20z m-558 -346 c42 -74 77 -139 77 -143 0 -12
-143 -89 -176 -95 -71 -13 -162 41 -184 109 -16 49 -4 117 27 154 24 29 147
109 168 109 6 1 45 -60 88 -134z m171 -299 c31 -52 56 -104 56 -115 0 -28 -27
-51 -61 -51 -31 0 -40 11 -113 141 l-36 67 42 25 c24 15 46 26 50 27 4 0 32
-42 62 -94z"/>
<path d="M1095 1023 c-70 -42 -77 -51 -64 -75 14 -25 24 -23 101 22 68 41 87
71 52 84 -22 8 -22 8 -89 -31z"/>
<path d="M1090 795 c-7 -8 -10 -22 -6 -30 4 -12 24 -15 91 -15 67 0 87 3 91
15 12 31 -15 45 -91 45 -52 0 -76 -4 -85 -15z"/>
</g>
</svg>
