<?xml version="1.0" standalone="no"?>
<!DOCTYPE svg PUBLIC "-//W3C//DTD SVG 20010904//EN"
 "http://www.w3.org/TR/2001/REC-SVG-20010904/DTD/svg10.dtd">
<svg version="1.0" xmlns="http://www.w3.org/2000/svg"
 width="128.000000pt" height="128.000000pt" viewBox="0 0 128.000000 128.000000"
 preserveAspectRatio="xMidYMid meet">

<g transform="translate(0.000000,128.000000) scale(0.100000,-0.100000)"
fill="#000000" stroke="none">
<path d="M85 1216 c-14 -14 -26 -41 -30 -67 -3 -24 -5 -203 -3 -396 l3 -353
28 -27 27 -28 320 -3 320 -3 0 -43 c0 -135 85 -238 210 -253 104 -12 210 50
247 145 26 68 25 222 -1 251 -11 12 -27 21 -38 21 -17 0 -18 17 -18 364 l0
364 -31 26 -31 26 -489 0 -490 0 -24 -24z m1019 -38 c14 -19 16 -72 16 -373
l0 -350 -53 1 c-112 2 -107 1 -107 38 0 31 3 34 35 40 19 4 39 15 45 26 5 10
10 66 10 124 0 144 -2 146 -148 146 -147 0 -146 1 -150 -139 -4 -107 -3 -111
22 -136 14 -14 34 -25 46 -25 32 0 25 -35 -10 -50 -31 -13 -60 -54 -60 -85 0
-13 -37 -15 -312 -15 -276 0 -314 2 -330 17 -17 15 -18 41 -18 394 0 330 2
380 16 393 14 14 73 16 499 16 l484 0 15 -22z m-96 -495 c-3 -103 -4 -108 -25
-111 -21 -3 -23 1 -23 40 0 49 -6 60 -39 78 -20 10 -27 9 -50 -7 -20 -16 -27
-30 -29 -67 -3 -42 -6 -47 -25 -44 -21 3 -22 9 -25 97 -1 52 -1 100 2 108 4
10 33 13 111 13 l106 0 -3 -107z m-89 -36 c6 -8 12 -74 13 -165 2 -91 7 -153
13 -155 6 -1 12 18 15 43 4 37 9 46 28 48 20 3 22 -1 22 -36 0 -23 6 -45 15
-52 17 -14 23 -5 27 50 2 27 7 35 23 35 16 0 21 -8 25 -45 3 -25 8 -44 13 -42
4 1 12 2 17 2 6 0 10 21 10 46 0 41 2 45 23 42 20 -3 22 -9 25 -80 5 -130 -26
-196 -111 -239 -32 -17 -54 -20 -104 -17 -69 4 -97 20 -147 82 -30 36 -31 43
-34 145 -3 90 -1 111 13 124 29 30 35 19 35 -69 0 -76 2 -85 18 -82 15 3 17
21 20 178 1 96 4 181 7 188 6 16 20 15 34 -1z"/>
<path d="M185 1125 c-29 -28 -33 -79 -9 -113 15 -22 19 -22 233 -22 177 0 221
3 230 14 7 8 11 37 9 67 -4 76 -11 79 -246 79 -192 0 -193 0 -217 -25z m430
-60 l0 -40 -205 0 -205 0 -3 28 c-7 59 -11 58 210 55 l203 -3 0 -40z"/>
<path d="M760 1110 c0 -20 4 -20 143 -18 118 3 142 5 142 18 0 13 -24 15 -142
18 -139 2 -143 2 -143 -18z"/>
<path d="M756 1021 c-15 -24 26 -32 155 -29 111 3 134 6 134 18 0 12 -24 15
-142 18 -78 1 -144 -2 -147 -7z"/>
<path d="M169 909 c-13 -26 -5 -89 13 -101 18 -11 66 -10 89 2 14 8 19 21 19
53 0 54 -13 67 -67 67 -33 0 -45 -5 -54 -21z m91 -44 c0 -21 -5 -25 -30 -25
-25 0 -30 4 -30 25 0 21 5 25 30 25 25 0 30 -4 30 -25z"/>
<path d="M357 924 c-12 -12 -8 -99 5 -112 17 -17 83 -15 97 2 7 8 11 36 9 63
l-3 48 -50 3 c-28 2 -54 0 -58 -4z m83 -59 c0 -21 -5 -25 -30 -25 -25 0 -30 4
-30 25 0 21 5 25 30 25 25 0 30 -4 30 -25z"/>
<path d="M537 924 c-12 -12 -8 -99 5 -112 17 -17 83 -15 97 2 7 8 11 36 9 63
l-3 48 -50 3 c-28 2 -54 0 -58 -4z m83 -59 c0 -21 -5 -25 -30 -25 -25 0 -30 4
-30 25 0 21 5 25 30 25 25 0 30 -4 30 -25z"/>
<path d="M757 923 c-4 -3 -2 -12 4 -20 9 -10 44 -13 138 -13 125 0 160 7 147
29 -8 12 -277 16 -289 4z"/>
<path d="M176 734 c-18 -18 -21 -66 -6 -95 8 -14 21 -19 53 -19 24 0 48 5 55
12 16 16 16 90 0 106 -17 17 -84 15 -102 -4z m84 -49 c0 -21 -5 -25 -30 -25
-25 0 -30 4 -30 25 0 21 5 25 30 25 25 0 30 -4 30 -25z"/>
<path d="M363 743 c-8 -3 -13 -25 -13 -58 0 -58 7 -65 64 -65 43 0 56 16 56
65 0 23 -5 46 -12 53 -12 12 -71 15 -95 5z m77 -58 c0 -21 -5 -25 -30 -25 -25
0 -30 4 -30 25 0 21 5 25 30 25 25 0 30 -4 30 -25z"/>
<path d="M542 738 c-7 -7 -12 -30 -12 -53 0 -49 13 -65 56 -65 56 0 64 8 64
59 0 26 -5 52 -12 59 -16 16 -80 16 -96 0z m78 -53 c0 -21 -5 -25 -30 -25 -25
0 -30 4 -30 25 0 21 5 25 30 25 25 0 30 -4 30 -25z"/>
<path d="M180 550 c-22 -22 -26 -60 -10 -91 14 -25 104 -28 114 -3 14 36 6 93
-13 104 -31 16 -69 12 -91 -10z m75 -50 c0 -20 -5 -25 -25 -25 -20 0 -26 6
-28 28 -3 26 -1 28 25 25 22 -2 28 -8 28 -28z"/>
<path d="M366 557 c-13 -10 -17 -24 -14 -62 l3 -50 55 0 55 0 3 50 c4 55 -12
75 -58 75 -14 0 -34 -6 -44 -13z m72 -54 c-2 -22 -8 -28 -28 -28 -20 0 -26 6
-28 28 -3 24 0 27 28 27 28 0 31 -3 28 -27z"/>
<path d="M546 557 c-13 -10 -17 -24 -14 -62 l3 -50 55 0 55 0 3 50 c4 55 -12
75 -58 75 -14 0 -34 -6 -44 -13z m72 -54 c-2 -22 -8 -28 -28 -28 -20 0 -26 6
-28 28 -3 24 0 27 28 27 28 0 31 -3 28 -27z"/>
</g>
</svg>
