<?xml version="1.0" standalone="no"?>
<!DOCTYPE svg PUBLIC "-//W3C//DTD SVG 20010904//EN"
 "http://www.w3.org/TR/2001/REC-SVG-20010904/DTD/svg10.dtd">
<svg version="1.0" xmlns="http://www.w3.org/2000/svg"
 width="128.000000pt" height="128.000000pt" viewBox="0 0 128.000000 128.000000"
 preserveAspectRatio="xMidYMid meet">

<g transform="translate(0.000000,128.000000) scale(0.100000,-0.100000)"
fill="#000000" stroke="none">
<path d="M797 1250 l-108 -28 -25 25 c-24 24 -26 24 -167 20 -171 -6 -134 -6
-302 0 -132 4 -142 3 -163 -17 l-22 -21 0 -589 0 -589 22 -21 c21 -20 31 -21
163 -17 168 6 132 6 301 0 129 -4 143 -2 165 16 l24 19 3 449 4 448 108 -420
c136 -524 126 -492 156 -512 24 -16 32 -15 146 13 130 31 168 51 168 90 0 23
-220 916 -261 1059 -21 73 -47 106 -83 104 -11 0 -70 -13 -129 -29z m152 -28
c5 -10 11 -31 13 -47 l3 -28 -130 -33 c-71 -18 -131 -31 -133 -29 -3 2 -7 24
-9 49 l-5 45 38 10 c225 59 210 57 223 33z m-631 -44 l3 -48 -135 0 -136 0 0
44 c0 26 5 46 13 50 6 2 66 4 132 3 l120 -2 3 -47z m320 0 l3 -48 -135 0 -136
0 0 43 c0 24 3 47 7 51 4 3 63 5 132 4 l126 -3 3 -47z m378 -210 c18 -73 34
-140 34 -148 0 -12 -30 -23 -117 -44 -65 -16 -123 -31 -129 -33 -12 -4 -90
284 -79 295 7 8 248 71 253 66 2 -1 19 -62 38 -136z m-696 -33 l0 -155 -135 0
-135 0 0 155 0 155 135 0 135 0 0 -155z m320 0 l0 -155 -135 0 -135 0 0 155 0
155 135 0 135 0 0 -155z m515 -509 c73 -287 78 -309 62 -321 -10 -7 -66 -25
-124 -39 -87 -22 -109 -25 -119 -14 -7 7 -47 148 -88 313 -42 165 -79 307 -82
316 -3 13 20 23 128 51 117 31 134 33 139 19 3 -9 41 -155 84 -325z m-837 -28
l-3 -343 -110 -3 c-60 -2 -120 0 -132 3 l-23 5 0 340 0 340 135 0 135 0 -2
-342z m320 0 l-3 -343 -130 0 -130 0 -3 343 -2 342 135 0 135 0 -2 -342z"/>
<path d="M930 1013 c0 -29 28 -125 39 -136 8 -8 14 -8 22 0 16 16 -21 147 -44
151 -11 2 -17 -3 -17 -15z"/>
<path d="M863 969 c11 -72 27 -119 42 -119 23 0 24 14 6 86 -13 51 -22 70 -36
73 -16 3 -17 -2 -12 -40z"/>
<path d="M784 979 c-8 -14 15 -124 30 -144 7 -9 16 -12 25 -6 11 7 10 20 -5
80 -17 67 -36 93 -50 70z"/>
<path d="M177 1013 c-4 -3 -7 -42 -7 -85 0 -70 2 -79 18 -76 14 3 18 16 20 74
2 51 -1 74 -11 82 -8 7 -17 9 -20 5z"/>
<path d="M442 1008 c-12 -12 -17 -115 -6 -142 8 -21 30 -21 38 0 3 9 6 42 6
74 0 61 -16 90 -38 68z"/>
<path d="M547 1013 c-4 -3 -7 -42 -7 -85 0 -70 2 -79 18 -76 14 3 18 16 20 74
2 51 -1 74 -11 82 -8 7 -17 9 -20 5z"/>
</g>
</svg>
