<?xml version="1.0" standalone="no"?>
<!DOCTYPE svg PUBLIC "-//W3C//DTD SVG 20010904//EN"
 "http://www.w3.org/TR/2001/REC-SVG-20010904/DTD/svg10.dtd">
<svg version="1.0" xmlns="http://www.w3.org/2000/svg"
 width="128.000000pt" height="128.000000pt" viewBox="0 0 128.000000 128.000000"
 preserveAspectRatio="xMidYMid meet">

<g transform="translate(0.000000,128.000000) scale(0.100000,-0.100000)"
fill="#000000" stroke="none">
<path d="M684 1259 c-10 -11 -89 -123 -174 -247 l-155 -227 -43 -3 -42 -3 0
38 c2 92 18 186 35 196 10 5 26 18 38 30 18 18 28 19 98 14 64 -5 79 -4 79 8
0 20 -7 23 -95 29 l-80 6 -47 -42 -46 -43 -12 -115 c-12 -117 -15 -129 -27
-117 -8 9 25 349 35 359 5 5 75 1 157 -7 103 -11 151 -13 158 -6 20 20 -6 28
-124 40 -160 15 -204 14 -220 -5 -8 -10 -20 -75 -29 -163 l-15 -146 -43 -6
c-43 -5 -62 -20 -62 -48 0 -7 -11 -26 -25 -43 l-25 -30 0 -339 0 -340 25 -24
24 -25 539 0 539 0 27 26 c25 25 26 32 26 125 0 79 3 99 14 99 37 0 46 28 46
144 0 116 -6 136 -42 136 -16 0 -18 10 -18 98 0 66 -4 104 -14 117 -7 11 -17
34 -20 52 -8 36 -21 50 -54 55 -22 3 -22 3 8 48 56 82 53 86 -175 242 -110 75
-209 137 -221 138 -11 0 -29 -9 -40 -21z m249 -153 c103 -70 187 -130 187
-134 0 -12 -124 -192 -132 -192 -14 0 -8 20 18 59 22 34 25 46 19 88 -4 26 -9
56 -12 66 -5 18 -209 161 -228 159 -5 -1 -34 -5 -64 -9 l-54 -8 -114 -165
c-62 -91 -117 -171 -122 -179 -4 -7 -14 -12 -20 -10 -11 4 40 83 237 367 47
69 69 93 81 89 10 -2 102 -61 204 -131z m-53 -53 c89 -58 100 -69 100 -95 0
-16 4 -37 10 -47 14 -27 -56 -125 -91 -129 -23 -3 -30 4 -50 45 -45 91 -143
121 -220 69 -32 -22 -44 -41 -63 -98 -4 -13 -16 -18 -46 -18 -22 0 -40 3 -40
8 0 4 46 76 102 159 86 127 107 153 128 154 14 0 34 4 45 9 11 5 21 9 23 9 1
1 47 -29 102 -66z m-120 -178 c33 -17 60 -52 60 -77 0 -16 -11 -18 -110 -18
-73 0 -110 4 -110 11 0 23 35 69 64 83 39 20 60 20 96 1z m-590 -75 c0 -15 -7
-20 -28 -20 -35 0 -45 9 -31 27 18 21 59 17 59 -7z m944 14 c33 -13 17 -34
-24 -34 -43 0 -43 0 -34 24 6 16 30 21 58 10z m27 -74 c14 -8 19 -21 19 -50
l0 -40 -550 0 -550 0 0 40 c0 27 6 42 18 49 24 14 1036 15 1063 1z m19 -165
l0 -45 -102 0 c-84 0 -109 -4 -135 -20 -92 -56 -94 -181 -2 -235 26 -15 57
-21 136 -23 l103 -4 0 -39 0 -39 -452 -2 c-395 -3 -453 -5 -453 -18 0 -13 58
-15 453 -18 l452 -2 0 -33 c0 -18 -5 -38 -12 -45 -17 -17 -1059 -17 -1076 0
-7 7 -12 27 -12 44 0 33 1 33 53 36 38 2 52 7 52 18 0 11 -14 16 -52 18 l-53
3 0 225 0 224 550 0 550 0 0 -45z m60 -185 l0 -100 -125 0 c-137 0 -169 9
-191 51 -23 45 -18 87 15 120 l29 29 136 0 136 0 0 -100z"/>
<path d="M965 458 c-49 -26 -58 -69 -24 -112 27 -34 71 -35 104 -1 14 13 25
31 25 39 0 31 -24 65 -53 76 -16 5 -30 10 -31 10 -1 0 -10 -6 -21 -12z m53
-40 c18 -18 15 -46 -6 -57 -37 -20 -70 27 -40 57 15 15 31 15 46 0z"/>
</g>
</svg>
