<?xml version="1.0" standalone="no"?>
<!DOCTYPE svg PUBLIC "-//W3C//DTD SVG 20010904//EN"
 "http://www.w3.org/TR/2001/REC-SVG-20010904/DTD/svg10.dtd">
<svg version="1.0" xmlns="http://www.w3.org/2000/svg"
 width="128.000000pt" height="128.000000pt" viewBox="0 0 128.000000 128.000000"
 preserveAspectRatio="xMidYMid meet">

<g transform="translate(0.000000,128.000000) scale(0.100000,-0.100000)"
fill="#000000" stroke="none">
<path d="M262 1255 c-39 -33 -50 -81 -28 -123 15 -30 15 -30 -19 -57 -60 -45
-83 -116 -49 -149 13 -13 42 -16 158 -16 126 0 145 2 159 18 40 44 2 124 -80
167 -2 1 5 20 13 43 14 34 15 46 4 71 -17 42 -43 62 -87 68 -32 4 -45 0 -71
-22z m107 -41 c12 -15 21 -33 21 -41 0 -19 -45 -63 -65 -63 -23 0 -65 45 -65
70 0 27 35 60 64 60 15 0 33 -11 45 -26z m21 -159 c35 -18 70 -61 70 -86 0
-18 -10 -19 -135 -19 -131 0 -135 1 -135 21 0 12 17 39 39 60 34 34 44 39 85
39 26 0 60 -7 76 -15z"/>
<path d="M627 1163 c-4 -3 -2 -12 4 -20 9 -10 61 -13 239 -13 126 0 235 3 244
6 9 3 16 12 16 20 0 12 -43 14 -248 14 -137 0 -252 -3 -255 -7z"/>
<path d="M624 1039 c-14 -23 25 -29 171 -26 134 2 150 4 153 20 3 16 -10 17
-157 17 -106 0 -162 -4 -167 -11z"/>
<path d="M292 818 c-21 -6 -40 -21 -52 -41 -24 -38 -25 -62 -5 -101 14 -26 14
-30 -2 -42 -10 -7 -21 -14 -25 -14 -4 0 -19 -18 -34 -39 -33 -50 -30 -100 6
-118 34 -17 256 -17 290 0 48 24 35 92 -31 151 -38 35 -38 35 -22 67 13 25 13
38 4 69 -17 57 -68 84 -129 68z m85 -64 c33 -52 -25 -112 -82 -86 -46 21 -41
93 8 111 30 11 56 2 74 -25z m30 -162 c35 -25 58 -65 50 -87 -6 -13 -25 -15
-134 -13 -121 3 -128 4 -131 24 -4 26 33 73 72 90 40 19 107 12 143 -14z"/>
<path d="M625 710 c-16 -26 15 -30 256 -30 242 0 249 1 249 20 0 19 -7 20
-249 20 -156 0 -252 -4 -256 -10z"/>
<path d="M625 590 c-15 -25 13 -30 166 -30 152 0 159 1 159 20 0 19 -7 20
-159 20 -96 0 -162 -4 -166 -10z"/>
<path d="M261 344 c-38 -31 -49 -80 -27 -121 15 -29 14 -31 -15 -52 -61 -45
-87 -121 -53 -155 13 -13 42 -16 158 -16 126 0 145 2 159 18 33 37 12 102 -47
147 -34 26 -34 26 -20 62 20 46 10 86 -28 118 -39 33 -87 33 -127 -1z m103
-29 c48 -49 15 -114 -54 -106 -21 3 -50 39 -50 62 0 46 71 76 104 44z m62
-198 c19 -20 34 -46 34 -57 0 -19 -6 -20 -135 -20 -148 0 -153 2 -119 59 28
47 62 62 128 58 53 -3 62 -7 92 -40z"/>
<path d="M631 261 c-39 -25 7 -31 250 -31 233 0 250 1 247 18 -3 16 -24 17
-243 19 -132 2 -246 -1 -254 -6z"/>
<path d="M627 133 c-4 -3 -2 -12 4 -20 9 -10 46 -13 149 -13 146 0 170 4 170
26 0 11 -30 14 -158 14 -87 0 -162 -3 -165 -7z"/>
</g>
</svg>
