<?xml version="1.0" standalone="no"?>
<!DOCTYPE svg PUBLIC "-//W3C//DTD SVG 20010904//EN"
 "http://www.w3.org/TR/2001/REC-SVG-20010904/DTD/svg10.dtd">
<svg version="1.0" xmlns="http://www.w3.org/2000/svg"
 width="128.000000pt" height="128.000000pt" viewBox="0 0 128.000000 128.000000"
 preserveAspectRatio="xMidYMid meet">

<g transform="translate(0.000000,128.000000) scale(0.100000,-0.100000)"
fill="#000000" stroke="none">
<path d="M436 1125 c-11 -26 -23 -37 -46 -41 -36 -8 -37 -16 -15 -133 9 -45
13 -97 9 -115 -5 -27 -1 -39 15 -55 12 -12 21 -29 21 -39 0 -10 11 -41 25 -68
14 -27 25 -50 25 -51 0 -2 -24 -3 -52 -3 -90 0 -158 -62 -158 -142 0 -28 -9
-50 -35 -84 -44 -57 -67 -135 -63 -211 l3 -58 475 0 475 0 3 58 c4 76 -19 154
-63 211 -26 34 -35 56 -35 84 0 80 -68 142 -157 142 -29 0 -53 1 -53 3 0 1 11
24 25 51 14 27 25 58 25 69 0 11 7 25 17 32 20 15 28 167 11 230 -14 53 -89
129 -143 144 -22 6 -97 11 -167 11 l-128 0 -14 -35z m321 -24 c56 -26 95 -85
100 -154 3 -41 2 -48 -7 -34 -6 9 -25 24 -43 32 -18 8 -47 26 -66 40 -61 45
-141 45 -202 0 -19 -14 -48 -32 -66 -40 -18 -8 -36 -22 -41 -31 -7 -12 -11 -5
-15 30 -4 25 -9 57 -13 70 -5 20 0 27 23 40 16 8 34 26 41 40 11 26 12 26 129
26 94 0 126 -4 160 -19z m-46 -146 c19 -13 49 -32 66 -42 18 -9 36 -26 39 -37
3 -12 16 -29 28 -39 l21 -18 -22 -16 c-13 -9 -23 -26 -23 -40 0 -30 -25 -91
-48 -116 -28 -31 -88 -57 -132 -57 -44 0 -104 26 -132 57 -23 25 -48 86 -48
116 0 14 -10 31 -22 40 l-23 15 28 25 c15 14 27 33 27 41 0 8 9 18 21 21 11 4
35 19 52 34 39 34 52 39 98 40 23 1 48 -8 70 -24z m-191 -394 c0 -15 -10 -19
-56 -24 -31 -3 -80 -17 -108 -31 -27 -14 -52 -23 -54 -21 -3 2 1 18 8 35 18
44 53 59 138 60 64 0 72 -2 72 -19z m409 4 c25 -13 60 -69 49 -80 -2 -2 -27 7
-54 21 -28 14 -77 28 -108 31 -46 5 -56 9 -56 24 0 17 8 19 70 19 43 0 82 -6
99 -15z m-209 -43 c0 -43 -38 -82 -80 -82 -42 0 -80 39 -80 82 l0 33 80 0 80
0 0 -33z m-193 -39 c3 -10 19 -32 36 -50 29 -31 30 -34 23 -105 -6 -73 -6 -74
24 -103 l30 -29 30 29 c30 29 30 30 24 103 -7 71 -6 74 23 105 17 18 33 40 36
50 4 9 16 17 27 17 19 0 20 -6 20 -170 l0 -170 -160 0 -160 0 0 170 c0 164 1
170 20 170 11 0 23 -8 27 -17z m-87 -158 c0 -158 -1 -165 -20 -165 -19 0 -20
7 -20 158 0 87 3 162 7 165 3 4 12 7 20 7 10 0 13 -34 13 -165z m438 -3 c2
-157 2 -162 -18 -162 -19 0 -20 6 -20 166 0 152 1 165 18 162 15 -3 17 -20 20
-166z m-518 -12 l0 -150 -81 0 -82 0 6 61 c7 77 46 158 99 204 23 19 45 35 50
35 4 0 8 -67 8 -150z m618 115 c53 -46 92 -127 99 -204 l6 -61 -82 0 -81 0 0
150 c0 83 4 150 8 150 5 0 27 -16 50 -35z m-325 -92 c7 -67 -2 -98 -23 -77
-11 11 -2 144 10 144 4 0 10 -30 13 -67z"/>
</g>
</svg>
