<?xml version="1.0" standalone="no"?>
<!DOCTYPE svg PUBLIC "-//W3C//DTD SVG 20010904//EN"
 "http://www.w3.org/TR/2001/REC-SVG-20010904/DTD/svg10.dtd">
<svg version="1.0" xmlns="http://www.w3.org/2000/svg"
 width="128.000000pt" height="128.000000pt" viewBox="0 0 128.000000 128.000000"
 preserveAspectRatio="xMidYMid meet">

<g transform="translate(0.000000,128.000000) scale(0.100000,-0.100000)"
fill="#000000" stroke="none">
<path d="M25 1255 l-25 -24 0 -591 0 -591 25 -24 24 -25 481 0 481 0 25 25
c24 24 25 29 22 137 -3 105 -4 113 -23 113 -18 0 -20 -8 -25 -110 l-5 -110
-475 0 -475 0 0 585 0 585 475 0 475 0 5 -155 c5 -147 6 -155 25 -155 19 0 20
8 23 158 2 156 2 158 -22 182 l-25 25 -481 0 -481 0 -24 -25z"/>
<path d="M434 1121 c-73 -33 -134 -126 -134 -206 0 -80 61 -173 134 -206 53
-24 139 -24 192 0 73 33 134 126 134 206 0 80 -61 173 -134 206 -24 11 -64 19
-96 19 -32 0 -72 -8 -96 -19z m174 -45 c87 -46 122 -136 86 -225 l-16 -40 -38
30 c-34 28 -37 34 -28 54 26 57 -22 135 -82 135 -60 0 -108 -78 -82 -135 9
-20 6 -26 -28 -54 l-38 -30 -16 40 c-36 88 -7 167 79 220 36 23 124 25 163 5z
m-45 -117 c5 -9 7 -28 3 -42 -5 -21 -12 -27 -35 -27 -29 0 -41 15 -41 49 0 39
52 54 73 20z m49 -158 l32 -28 -32 -17 c-17 -9 -54 -16 -82 -16 -28 0 -65 7
-82 16 l-32 17 32 28 c26 24 41 29 82 29 41 0 56 -5 82 -29z"/>
<path d="M1130 952 c-30 -15 -58 -57 -199 -301 l-164 -284 -11 -102 c-7 -56
-10 -107 -8 -114 7 -22 35 -10 117 49 l83 60 161 279 c89 154 164 293 167 309
8 38 -18 87 -56 107 -37 19 -47 19 -90 -3z m80 -52 c23 -23 25 -39 8 -75 -14
-31 -20 -31 -69 -3 -45 25 -48 40 -14 73 29 30 49 31 75 5z m-80 -125 c39 -25
40 -26 26 -53 -17 -34 -227 -396 -232 -401 -5 -5 -55 17 -78 34 -18 14 -13 24
105 230 68 118 127 215 131 215 5 0 26 -11 48 -25z m-278 -481 l32 -16 -35
-29 c-44 -37 -53 -36 -45 2 3 17 6 38 6 45 0 18 4 18 42 -2z"/>
<path d="M185 590 c-4 -7 -3 -16 3 -22 14 -14 45 -2 40 15 -6 16 -34 21 -43 7z"/>
<path d="M290 580 c0 -20 4 -20 198 -18 167 3 197 5 197 18 0 13 -30 15 -197
18 -194 2 -198 2 -198 -18z"/>
<path d="M185 450 c-4 -7 -3 -16 3 -22 14 -14 45 -2 40 15 -6 16 -34 21 -43 7z"/>
<path d="M290 440 c0 -20 4 -20 198 -18 167 3 197 5 197 18 0 13 -30 15 -197
18 -194 2 -198 2 -198 -18z"/>
<path d="M185 310 c-4 -7 -3 -16 3 -22 14 -14 45 -2 40 15 -6 16 -34 21 -43 7z"/>
<path d="M290 300 c0 -20 4 -20 198 -18 167 3 197 5 197 18 0 13 -30 15 -197
18 -194 2 -198 2 -198 -18z"/>
<path d="M510 160 c0 -20 5 -21 88 -18 69 2 87 6 87 18 0 12 -18 16 -87 18
-83 3 -88 2 -88 -18z"/>
</g>
</svg>
