<?xml version="1.0" standalone="no"?>
<!DOCTYPE svg PUBLIC "-//W3C//DTD SVG 20010904//EN"
 "http://www.w3.org/TR/2001/REC-SVG-20010904/DTD/svg10.dtd">
<svg version="1.0" xmlns="http://www.w3.org/2000/svg"
 width="128.000000pt" height="128.000000pt" viewBox="0 0 128.000000 128.000000"
 preserveAspectRatio="xMidYMid meet">

<g transform="translate(0.000000,128.000000) scale(0.100000,-0.100000)"
fill="#000000" stroke="none">
<path d="M72 1248 c-17 -17 -17 -1149 0 -1166 9 -9 109 -12 389 -12 l377 0 54
-25 c68 -32 127 -32 194 -1 147 69 179 251 64 366 -41 42 -99 70 -143 70 -14
0 -17 35 -19 315 l-3 316 -76 74 -76 75 -375 0 c-277 0 -377 -3 -386 -12z
m728 -85 c0 -32 4 -63 8 -70 4 -7 36 -13 72 -15 l65 -3 3 -297 2 -297 -47 -21
c-26 -12 -58 -31 -71 -43 -27 -25 -62 -88 -62 -112 0 -13 -31 -15 -249 -15
-137 0 -256 -3 -265 -6 -9 -3 -16 -12 -16 -20 0 -12 44 -14 259 -14 l259 0 7
-37 c3 -21 15 -53 25 -71 l19 -32 -354 0 -355 0 0 555 0 555 350 0 350 0 0
-57z m80 -8 l34 -35 -37 0 c-36 0 -37 1 -37 35 0 19 1 35 3 35 2 0 18 -16 37
-35z m183 -729 c18 -7 46 -29 64 -47 93 -98 63 -242 -62 -300 -49 -23 -94 -24
-143 -4 -157 66 -161 275 -7 346 48 22 104 24 148 5z"/>
<path d="M385 1161 c-110 -31 -134 -53 -73 -69 l33 -8 5 -95 c6 -94 21 -141
54 -168 23 -19 20 -26 -17 -39 -81 -29 -177 -159 -177 -239 l0 -33 316 0 317
0 -7 41 c-15 91 -98 199 -181 234 l-37 15 30 34 c16 19 31 39 34 46 2 6 24 12
48 13 l45 2 3 46 c2 32 -2 50 -13 59 -17 14 -21 90 -5 106 17 17 -7 30 -113
58 -120 32 -135 31 -262 -3z m214 -25 c29 -8 55 -17 58 -19 2 -3 -28 -12 -67
-22 -67 -16 -73 -16 -135 0 -36 10 -63 20 -61 22 8 8 100 31 126 32 14 0 49
-6 79 -13z m108 -108 c-2 -13 -4 -5 -4 17 -1 22 1 32 4 23 2 -10 2 -28 0 -40z
m-225 20 c38 -9 57 -8 105 5 33 10 62 17 66 17 4 0 7 -16 7 -35 0 -28 -5 -37
-22 -44 -48 -18 -127 -22 -187 -10 l-61 12 0 39 c0 37 2 40 23 34 12 -4 43
-12 69 -18z m43 -113 c28 0 67 4 88 8 33 7 37 6 37 -13 0 -35 -28 -79 -62 -96
-83 -43 -171 -2 -193 89 l-7 28 43 -8 c24 -4 67 -8 94 -8z m12 -171 c-3 -3
-12 -4 -19 -1 -8 3 -5 6 6 6 11 1 17 -2 13 -5z m-66 -20 c16 -15 16 -44 0 -44
-7 0 -31 44 -31 55 0 10 14 5 31 -11z m124 -15 c-14 -26 -19 -28 -32 -18 -13
12 -13 15 7 31 33 27 42 22 25 -13z m-171 -33 c15 -25 30 -48 36 -51 5 -3 20
7 34 22 l25 27 29 -27 c15 -15 31 -27 35 -27 3 0 18 21 33 48 15 26 29 49 31
51 9 13 87 -57 113 -102 53 -93 68 -87 -240 -87 -179 0 -270 3 -270 10 0 42
107 180 139 180 5 0 21 -20 35 -44z"/>
<path d="M245 430 c-16 -27 16 -30 281 -30 267 0 274 0 274 20 0 20 -7 20
-274 20 -173 0 -277 -4 -281 -10z"/>
<path d="M1016 311 l-49 -50 -29 24 c-36 30 -52 31 -78 5 -30 -30 -25 -48 29
-101 67 -68 80 -66 176 31 74 74 78 81 69 107 -7 21 -17 29 -39 31 -25 2 -39
-6 -79 -47z m84 2 c0 -12 -123 -133 -135 -133 -17 0 -88 77 -77 83 5 4 22 -7
37 -23 16 -17 32 -30 36 -30 4 0 31 25 60 55 47 49 79 69 79 48z"/>
</g>
</svg>
