<?xml version="1.0" standalone="no"?>
<!DOCTYPE svg PUBLIC "-//W3C//DTD SVG 20010904//EN"
 "http://www.w3.org/TR/2001/REC-SVG-20010904/DTD/svg10.dtd">
<svg version="1.0" xmlns="http://www.w3.org/2000/svg"
 width="128.000000pt" height="128.000000pt" viewBox="0 0 128.000000 128.000000"
 preserveAspectRatio="xMidYMid meet">

<g transform="translate(0.000000,128.000000) scale(0.100000,-0.100000)"
fill="#000000" stroke="none">
<path d="M259 1185 c-15 -8 -31 -22 -35 -32 -5 -10 -11 -196 -14 -413 l-5
-395 -72 -3 -73 -3 0 -75 c0 -90 17 -137 62 -164 32 -19 49 -20 425 -20 l391
0 31 26 c17 14 35 42 41 62 5 20 10 128 10 239 l0 202 98 3 97 3 3 243 c3 268
-2 292 -57 325 -26 15 -71 17 -453 17 -347 -1 -428 -3 -449 -15z m731 -44 c-6
-13 -10 -181 -10 -479 0 -473 -3 -512 -40 -532 -38 -20 -90 -12 -121 19 -27
28 -29 34 -29 110 l0 81 -270 0 -270 0 0 390 c0 377 1 391 20 410 19 19 33 20
375 20 349 0 355 0 345 -19z m165 -6 l25 -24 0 -231 0 -230 -80 0 -80 0 0 232
c0 224 1 232 22 255 30 32 81 31 113 -2z m-405 -890 c0 -31 7 -71 14 -90 l15
-35 -310 0 -311 0 -29 29 c-26 26 -29 36 -29 90 l0 61 325 0 325 0 0 -55z"/>
<path d="M413 1034 c-37 -41 -43 -82 -15 -107 10 -10 28 -17 39 -17 30 0 49
-26 33 -45 -18 -21 -41 -19 -47 5 -7 26 -43 27 -43 1 0 -20 24 -51 40 -51 4 0
10 -9 13 -20 3 -13 10 -18 21 -14 9 3 16 10 16 15 0 4 11 19 25 33 14 14 25
33 25 43 0 32 -29 62 -66 69 -28 5 -35 10 -32 28 4 29 44 34 53 6 4 -12 13
-20 23 -18 25 5 25 26 -1 52 -13 13 -27 31 -30 40 -9 23 -18 20 -54 -20z"/>
<path d="M585 1049 c-15 -24 17 -29 151 -27 116 3 139 6 139 18 0 12 -24 15
-142 18 -96 2 -144 -1 -148 -9z"/>
<path d="M593 943 c-7 -2 -13 -11 -13 -19 0 -11 27 -14 150 -14 122 0 150 3
150 14 0 8 -7 17 -16 20 -19 7 -253 7 -271 -1z"/>
<path d="M584 819 c-14 -24 18 -29 152 -27 123 3 139 5 142 21 3 16 -9 17
-142 17 -93 0 -147 -4 -152 -11z"/>
<path d="M351 707 c-6 -8 -8 -17 -4 -20 3 -4 125 -7 270 -7 247 0 264 1 261
18 -3 16 -25 17 -259 20 -206 2 -258 0 -268 -11z"/>
<path d="M344 589 c-15 -24 31 -29 276 -26 234 2 255 3 258 20 3 16 -15 17
-262 17 -183 0 -267 -3 -272 -11z"/>
<path d="M345 479 c-16 -26 21 -29 271 -27 222 3 259 5 259 18 0 13 -37 15
-262 18 -183 2 -264 -1 -268 -9z"/>
</g>
</svg>
