<?xml version="1.0" standalone="no"?>
<!DOCTYPE svg PUBLIC "-//W3C//DTD SVG 20010904//EN"
 "http://www.w3.org/TR/2001/REC-SVG-20010904/DTD/svg10.dtd">
<svg version="1.0" xmlns="http://www.w3.org/2000/svg"
 width="136.000000pt" height="136.000000pt" viewBox="0 0 136.000000 136.000000"
 preserveAspectRatio="xMidYMid meet">

<g transform="translate(0.000000,136.000000) scale(0.100000,-0.100000)"
fill="#000000" stroke="none">
<path d="M40 720 l0 -640 640 0 640 0 0 640 0 640 -640 0 -640 0 0 -640z
m1270 0 l0 -630 -630 0 -630 0 0 630 0 630 630 0 630 0 0 -630z"/>
<path d="M307 1262 c-14 -16 -17 -43 -17 -174 l0 -156 -34 -50 c-49 -74 -89
-265 -103 -504 -4 -64 -10 -102 -19 -109 -15 -12 -19 -76 -6 -97 7 -9 45 -12
158 -10 l149 3 3 49 c3 53 -6 66 -46 66 -17 0 -23 5 -20 17 3 17 26 18 308 18
282 0 305 -1 308 -18 3 -12 -3 -17 -20 -17 -40 0 -49 -13 -46 -66 l3 -49 149
-3 c113 -2 151 1 158 10 13 21 9 85 -6 97 -9 7 -15 45 -19 109 -14 239 -54
430 -103 504 -33 49 -34 53 -34 152 l0 102 -73 72 -72 72 -301 0 c-279 0 -302
-1 -317 -18z m583 -58 c0 -25 4 -54 10 -64 12 -22 60 -40 106 -40 l34 0 0
-231 c0 -181 -3 -229 -12 -223 -7 4 -32 20 -55 36 -53 36 -97 37 -119 3 -24
-36 -8 -66 57 -107 l52 -33 1 -98 1 -97 -285 0 -285 0 1 97 1 97 52 33 c64 41
81 72 57 108 -24 36 -65 33 -129 -10 l-52 -35 -3 291 c-2 207 1 296 9 305 9
11 66 14 285 14 l274 0 0 -46z m95 -62 c-43 -6 -55 4 -55 45 l0 37 41 -39 40
-40 -26 -3z m-675 -544 c8 2 43 22 77 44 62 39 93 44 93 14 0 -9 -27 -34 -60
-56 l-60 -41 0 -89 c0 -48 -5 -111 -12 -139 l-11 -51 -73 0 -73 0 -6 33 c-7
34 37 382 56 452 6 22 19 54 28 70 16 29 16 27 21 -105 4 -113 7 -134 20 -132z
m805 178 c22 -73 68 -424 60 -463 l-6 -33 -73 0 -73 0 -11 51 c-7 28 -12 91
-12 139 l0 89 -60 41 c-33 22 -60 47 -60 56 0 31 32 25 101 -20 40 -25 76 -43
80 -40 5 3 9 65 9 137 1 119 2 130 16 112 8 -11 21 -42 29 -69z m-707 -558 l3
-28 -125 0 -126 0 0 30 0 31 123 -3 122 -3 3 -27z m792 2 l0 -30 -125 0 c-124
0 -125 0 -125 23 0 13 3 27 7 30 3 4 60 7 125 7 l118 0 0 -30z"/>
<path d="M496 1139 c-29 -34 -32 -62 -12 -98 13 -23 12 -27 -10 -44 -42 -33
-54 -69 -54 -167 l0 -90 140 0 140 0 0 90 c0 98 -12 134 -54 167 -22 17 -23
21 -10 44 20 36 17 64 -12 98 -20 25 -34 31 -64 31 -30 0 -44 -6 -64 -31z m98
-15 c19 -18 21 -65 4 -82 -7 -7 -24 -12 -38 -12 -33 0 -50 17 -50 51 0 32 23
59 50 59 10 0 26 -7 34 -16z m38 -163 c31 -28 33 -33 36 -110 l4 -81 -112 0
-112 0 4 81 c3 77 5 82 36 110 24 22 42 29 72 29 30 0 48 -7 72 -29z"/>
<path d="M817 1123 c-24 -24 -30 -26 -47 -15 -30 19 -39 -13 -12 -40 l21 -21
46 37 c43 36 52 55 29 63 -5 2 -22 -9 -37 -24z"/>
<path d="M811 962 c-23 -18 -36 -23 -38 -14 -3 6 -11 12 -19 12 -17 0 -18 -19
0 -42 19 -25 32 -23 76 15 65 53 46 81 -19 29z"/>
<path d="M819 812 c-27 -24 -37 -27 -51 -19 -22 14 -36 1 -22 -20 25 -41 42
-40 86 4 31 31 39 46 31 54 -8 8 -20 2 -44 -19z"/>
<path d="M500 560 c-37 -23 9 -30 176 -28 142 3 169 5 169 18 0 13 -26 15
-165 17 -93 2 -172 -1 -180 -7z"/>
<path d="M493 448 c6 -19 368 -19 375 0 3 9 -39 12 -188 12 -149 0 -191 -3
-187 -12z"/>
</g>
</svg>
