<?xml version="1.0" standalone="no"?>
<!DOCTYPE svg PUBLIC "-//W3C//DTD SVG 20010904//EN"
 "http://www.w3.org/TR/2001/REC-SVG-20010904/DTD/svg10.dtd">
<svg version="1.0" xmlns="http://www.w3.org/2000/svg"
 width="128.000000pt" height="128.000000pt" viewBox="0 0 128.000000 128.000000"
 preserveAspectRatio="xMidYMid meet">

<g transform="translate(0.000000,128.000000) scale(0.100000,-0.100000)"
fill="#000000" stroke="none">
<path d="M264 1110 c-33 -4 -66 -10 -72 -14 -7 -4 -12 -27 -12 -52 l0 -44 -36
40 c-20 22 -40 40 -45 40 -11 0 -79 -60 -79 -69 0 -4 22 -33 50 -66 l50 -59 2
-335 3 -336 226 -3 227 -2 6 -25 c6 -25 8 -25 106 -25 98 0 101 1 110 25 l9
25 223 2 223 3 0 405 0 405 -32 3 c-30 3 -33 6 -33 36 0 43 -6 45 -195 53
-119 5 -167 2 -230 -10 -73 -15 -88 -15 -150 -2 -72 15 -242 18 -351 5z m351
-44 l50 -11 3 -333 c1 -182 -1 -332 -5 -332 -5 0 -24 5 -43 11 -19 6 -116 14
-215 18 l-180 6 -3 163 c-1 95 1 162 7 162 5 0 40 -36 77 -80 42 -50 87 -92
120 -110 52 -30 84 -38 84 -20 0 34 -50 133 -91 181 -27 31 -49 59 -49 63 0 3
54 6 119 6 77 0 122 4 127 11 13 22 -23 29 -156 29 l-136 0 -52 60 c-52 59
-53 61 -50 117 l3 58 45 6 c78 10 293 8 345 -5z m468 7 l67 -6 0 -323 0 -324
-137 0 c-127 0 -204 -7 -276 -25 l-27 -7 2 333 3 334 50 11 c56 14 216 17 318
7z m-963 -65 c13 -17 15 -27 8 -35 -15 -19 -24 -16 -42 12 -29 43 1 63 34 23z
m1100 -388 l0 -370 -218 0 -219 0 -11 -25 c-11 -23 -17 -25 -82 -25 -66 0 -71
2 -80 25 l-10 25 -220 0 -220 0 0 291 c0 258 2 290 15 279 12 -10 15 -48 15
-224 0 -168 3 -222 16 -259 l16 -47 458 0 458 0 26 46 26 47 0 297 c0 163 3
300 7 303 3 4 10 7 15 7 4 0 8 -166 8 -370z m-932 193 c139 -162 136 -157 118
-172 -12 -10 -38 15 -140 134 -69 80 -126 150 -126 155 0 4 6 11 13 13 6 3 13
6 14 6 1 1 55 -61 121 -136z m162 -213 c0 -5 -2 -10 -4 -10 -3 0 -8 5 -11 10
-3 6 -1 10 4 10 6 0 11 -4 11 -10z m628 -216 c59 -7 60 -7 50 -30 l-11 -24
-204 0 c-114 0 -203 4 -203 9 0 13 93 33 190 41 47 4 92 8 101 9 9 0 43 -2 77
-5z m-460 -24 c30 -8 52 -19 52 -27 0 -10 -42 -13 -209 -13 l-209 0 -11 31
-11 31 168 -4 c92 -3 191 -11 220 -18z"/>
<path d="M282 953 c3 -16 20 -18 162 -21 118 -2 161 1 167 10 4 7 5 16 3 20
-3 4 -79 8 -170 8 -152 0 -165 -1 -162 -17z"/>
<path d="M764 957 c-3 -8 -4 -47 -2 -88 l3 -74 168 -3 167 -2 0 90 0 90 -165
0 c-129 0 -167 -3 -171 -13z m296 -77 l0 -50 -130 0 -130 0 0 50 0 50 130 0
130 0 0 -50z"/>
<path d="M764 669 c-15 -24 19 -29 172 -27 142 3 159 5 162 21 3 16 -10 17
-162 17 -108 0 -167 -4 -172 -11z"/>
<path d="M765 530 c-15 -25 13 -30 171 -30 152 0 165 1 162 18 -3 15 -20 17
-165 20 -102 1 -164 -1 -168 -8z"/>
</g>
</svg>
