<?xml version="1.0" standalone="no"?>
<!DOCTYPE svg PUBLIC "-//W3C//DTD SVG 20010904//EN"
 "http://www.w3.org/TR/2001/REC-SVG-20010904/DTD/svg10.dtd">
<svg version="1.0" xmlns="http://www.w3.org/2000/svg"
 width="128.000000pt" height="128.000000pt" viewBox="0 0 128.000000 128.000000"
 preserveAspectRatio="xMidYMid meet">

<g transform="translate(0.000000,128.000000) scale(0.100000,-0.100000)"
fill="#000000" stroke="none">
<path d="M22 1107 c-22 -23 -22 -23 -22 -468 l0 -446 23 -21 c23 -22 26 -22
455 -22 377 0 432 2 432 15 0 13 -53 15 -416 15 -267 0 -422 4 -435 10 -18 10
-19 26 -19 450 0 424 1 440 19 450 11 5 63 10 116 10 73 0 96 3 93 13 -3 8
-38 13 -114 15 -104 2 -111 1 -132 -21z"/>
<path d="M330 1115 c0 -13 55 -15 436 -15 281 0 442 -4 455 -10 18 -10 19 -26
19 -450 0 -424 -1 -440 -19 -450 -11 -5 -72 -10 -135 -10 -96 0 -116 -3 -116
-15 0 -13 21 -15 133 -15 196 0 177 -53 177 491 l0 446 -23 21 c-23 22 -25 22
-475 22 -395 0 -452 -2 -452 -15z"/>
<path d="M136 1014 c-19 -19 -22 -104 -4 -122 8 -8 55 -12 144 -12 149 0 144
-3 144 80 0 65 -11 70 -154 70 -91 0 -118 -3 -130 -16z m244 -64 l0 -40 -110
0 -110 0 0 40 0 40 110 0 110 0 0 -40z"/>
<path d="M506 1014 c-19 -19 -22 -104 -4 -122 17 -17 259 -17 276 0 18 18 15
103 -4 122 -23 23 -245 23 -268 0z m244 -64 l0 -40 -110 0 -110 0 0 40 0 40
110 0 110 0 0 -40z"/>
<path d="M878 1019 c-13 -7 -18 -23 -18 -59 0 -83 -5 -80 144 -80 89 0 136 4
144 12 7 7 12 33 12 58 0 73 -14 80 -151 80 -63 0 -122 -5 -131 -11z m242 -69
l0 -40 -110 0 -110 0 0 40 0 40 110 0 110 0 0 -40z"/>
<path d="M438 798 l-3 -33 -155 -5 c-93 -3 -155 -9 -155 -15 0 -6 62 -12 155
-15 l155 -5 0 -50 0 -50 -145 -3 c-164 -3 -178 -5 -160 -27 10 -12 42 -15 161
-15 l149 0 0 -50 0 -49 -157 -3 c-133 -3 -158 -5 -158 -18 0 -13 25 -15 158
-18 l157 -3 0 -49 0 -49 -157 -3 c-133 -3 -158 -5 -158 -18 0 -13 25 -15 157
-18 l157 -3 3 -32 c4 -42 22 -41 26 1 l3 32 169 0 169 0 3 -32 c4 -42 22 -43
26 -1 l3 32 157 3 c132 3 157 5 157 18 0 13 -25 15 -157 18 l-158 3 0 49 0 49
158 3 c132 3 157 5 157 18 0 13 -25 15 -157 18 l-158 3 0 49 0 50 149 0 c119
0 151 3 161 15 18 22 4 24 -160 27 l-145 3 0 50 0 50 155 5 c93 3 155 9 155
15 0 6 -62 12 -155 15 l-155 5 -3 33 c-2 19 -9 32 -17 32 -8 0 -15 -13 -17
-32 l-3 -33 -165 0 -165 0 -5 29 c-7 42 -28 44 -32 4z m370 -125 l3 -53 -170
0 -171 0 0 48 c0 27 3 52 7 56 4 3 79 5 167 4 l161 -3 3 -52z m2 -143 l0 -50
-170 0 -170 0 0 50 0 50 170 0 170 0 0 -50z m0 -140 l0 -50 -170 0 -170 0 0
50 0 50 170 0 170 0 0 -50z"/>
</g>
</svg>
